<svg version="1.1" id="Layer_1" xmlns="http://www.w3.org/2000/svg" xmlns:xlink="http://www.w3.org/1999/xlink" x="0px" y="0px" viewBox="0 0 24 24" style="enable-background:new 0 0 24 24;" xml:space="preserve" height="23px" width="23px">
<style type="text/css">.st0{fill:white;}</style>
<path class="st0" d="M11.2,22.8c-1.4,0-2.7-0.3-3.9-0.8C6,21.5,5,20.8,4.1,19.9s-1.6-2-2.1-3.2s-0.8-2.5-0.8-3.9
	c0-1.4,0.3-2.7,0.8-3.9s1.2-2.3,2.1-3.2s2-1.6,3.2-2.1s2.5-0.8,3.9-0.8s2.7,0.3,3.9,0.8s2.3,1.2,3.2,2.1c0.9,0.9,1.6,2,2.1,3.2
	s0.8,2.5,0.8,3.9c0,1.4-0.3,2.7-0.8,3.9s-1.2,2.3-2.1,3.2c-0.9,0.9-2,1.6-3.2,2.1C13.8,22.5,12.5,22.8,11.2,22.8z M10.2,20.7v-2
	c-0.5,0-1-0.2-1.4-0.6s-0.6-0.9-0.6-1.4v-1L3.4,11c0,0.3-0.1,0.6-0.1,0.9s-0.1,0.6-0.1,0.9c0,2,0.7,3.8,2,5.3S8.1,20.5,10.2,20.7z
	 M17.1,18.2c0.3-0.4,0.6-0.8,0.9-1.2c0.3-0.4,0.5-0.9,0.7-1.3c0.2-0.5,0.3-0.9,0.4-1.4c0.2-0.9,0.2-1.8,0-2.7c-0.1-1-0.5-1.9-1-2.8
	c-0.9-1.6-2.2-2.7-3.9-3.4v0.4c0,0.6-0.2,1-0.6,1.4c-0.4,0.4-0.9,0.6-1.4,0.6h-2v2c0,0.3-0.1,0.5-0.3,0.7c-0.2,0.2-0.4,0.3-0.7,0.3
	h-2v2h6c0.3,0,0.5,0.1,0.7,0.3c0.2,0.2,0.3,0.4,0.3,0.7v3h1c0.4,0,0.8,0.1,1.2,0.4C16.7,17.4,16.9,17.8,17.1,18.2z"/>
<path class="st0" d="M19.6,6.5v-2h-2v-2h2v-2h2v2h2v2h-2v2H19.6z"/>
</svg>
