<?xml version="1.0" encoding="utf-8"?>
<!-- Generator: Adobe Illustrator 28.2.0, SVG Export Plug-In . SVG Version: 6.00 Build 0)  -->
<svg version="1.1" id="Layer_1" xmlns="http://www.w3.org/2000/svg" xmlns:xlink="http://www.w3.org/1999/xlink" x="0px" y="0px"
	 viewBox="0 0 50 50" style="enable-background:new 0 0 50 50;" xml:space="preserve">
<path class="st0" d="M45.4,5.9c0-0.8-0.7-1.5-1.5-1.5l-37.3,0c-1.5,0-2.2,0.7-2.2,2.2L4.4,44.1c0,0.9,0.7,1.6,1.6,1.6c0,0,0,0,0,0
	l38.1-0.2c0.8,0,1.4-0.6,1.4-1.4c0,0,0,0,0,0l0-6.9c0-1.2,1-2.2,2.1-2.2H48c1,0,1.5,0.5,1.6,1.5c0.6,5.4,0.9,13-6.4,13.1
	C31.1,50,18.9,50,6.7,49.8c-4-0.1-6.1-2.2-6.2-6.2C0,29.8,0,16.9,0.6,5c0.2-4.3,3-4.9,6.8-4.9C22.4,0,34.4,0,43.4,0.2
	c7.5,0.1,6.9,9.5,6.2,14.8c-0.1,0.9-0.9,1.5-1.8,1.5l-0.7-0.1c-1.1-0.1-1.6-0.7-1.6-1.8L45.4,5.9z"/>
<path class="st0" d="M20.7,30.9l-4.7,0c-0.5,0-0.9,0.4-1,0.9L14.6,34c-0.1,0.8-0.8,1.4-1.6,1.4l-2.9-0.1c-0.6,0-1.1-0.5-1.1-1.1
	c0-0.1,0-0.2,0-0.3l5.5-20.8c0.1-0.5,0.5-0.9,1-1c1.7-0.4,3.5-0.4,5.2,0.1c0.4,0.1,0.7,0.4,0.8,0.8l5.8,21.3c0.1,0.4-0.1,0.9-0.6,1
	c-0.1,0-0.1,0-0.2,0l-3.1,0c-0.8,0-1.4-0.5-1.5-1.3l-0.3-2.1C21.6,31.2,21.3,30.9,20.7,30.9z M20.2,25.6c-0.7-2.3-1.1-3.3-1.4-5.7
	c0-0.2-0.2-0.4-0.4-0.3c-0.2,0-0.3,0.1-0.3,0.3l-1.2,5.7c-0.1,0.4,0.2,0.8,0.6,0.9c0.1,0,0.1,0,0.2,0l2,0
	C20.1,26.5,20.4,26.2,20.2,25.6z"/>
<path class="st0" d="M41.1,21.5l4,0.9c0.9,0.2,1.4,1.1,1.2,1.9c-0.1,0.6-0.6,1.1-1.2,1.2l-4,0.9c-0.6,0.1-1.1,0.6-1.2,1.2l-0.9,4
	c-0.2,0.9-1,1.4-1.9,1.2c-0.6-0.1-1.1-0.6-1.2-1.2l-0.9-4c-0.1-0.6-0.6-1.1-1.2-1.2l-4-0.9c-0.9-0.2-1.4-1.1-1.2-1.9
	c0.1-0.6,0.6-1.1,1.2-1.2l4-0.9c0.6-0.1,1.1-0.6,1.2-1.2l0.9-4c0.2-0.9,1-1.4,1.9-1.2c0.6,0.1,1.1,0.6,1.2,1.2l0.9,4
	C40,20.9,40.5,21.4,41.1,21.5z"/>
</svg>
