<?xml version="1.0" encoding="UTF-8" standalone="no"?>
<!DOCTYPE svg PUBLIC "-//W3C//DTD SVG 1.1//EN" "http://www.w3.org/Graphics/SVG/1.1/DTD/svg11.dtd">
<svg xmlns="http://www.w3.org/2000/svg" version="1.1" viewBox="0.00 0.00 50.00 50.00">
<path fill="#ededed" d="
  M 39.00 12.01
  A 1.01 1.00 0.0 0 0 37.99 11.01
  L 12.48 10.99
  Q 10.95 10.98 10.94 12.52
  L 10.89 38.00
  A 1.11 1.11 0.0 0 0 12.00 39.12
  L 38.12 39.00
  A 0.96 0.96 0.0 0 0 39.08 38.04
  L 39.06 33.35
  A 1.48 1.48 0.0 0 1 40.53 31.87
  L 40.80 31.87
  Q 41.80 31.87 41.90 32.87
  C 42.28 36.56 42.55 41.71 37.50 41.82
  Q 25.00 42.11 12.50 41.85
  Q 8.41 41.76 8.24 37.63
  Q 7.68 23.54 8.34 11.37
  C 8.50 8.46 10.41 8.05 13.01 8.03
  Q 28.38 7.89 37.62 8.08
  C 42.78 8.18 42.36 14.55 41.85 18.15
  A 1.17 1.17 0.0 0 1 40.60 19.15
  L 40.14 19.11
  Q 39.02 19.01 39.02 17.89
  L 39.00 12.01
  Z"
/>
<path fill="#ededed" d="
  M 22.10 29.02
  L 18.86 29.03
  A 0.71 0.71 0.0 0 0 18.17 29.63
  L 17.93 31.12
  A 1.09 1.09 0.0 0 1 16.82 32.04
  L 14.85 31.99
  A 0.74 0.74 0.0 0 1 14.15 31.06
  L 17.95 16.88
  Q 18.10 16.32 18.66 16.19
  Q 20.45 15.77 22.22 16.23
  Q 22.64 16.33 22.76 16.75
  L 26.70 31.22
  A 0.55 0.54 -8.2 0 1 26.18 31.91
  L 24.06 31.94
  A 1.06 1.05 84.9 0 1 23.01 31.06
  L 22.78 29.60
  Q 22.69 29.01 22.10 29.02
  Z
  M 21.71 25.37
  C 21.20 23.80 20.98 23.10 20.73 21.51
  A 0.26 0.26 0.0 0 0 20.22 21.49
  L 19.37 25.38
  A 0.52 0.51 -83.7 0 0 19.87 26.01
  L 21.25 26.00
  Q 21.91 26.00 21.71 25.37
  Z"
/>
<path fill="#ededed" d="
  M 36.05 22.63
  L 38.79 23.23
  A 1.10 1.10 0.0 0 1 38.78 25.38
  L 36.03 25.97
  A 1.10 1.10 0.0 0 0 35.19 26.81
  L 34.59 29.55
  A 1.10 1.10 0.0 0 1 32.44 29.54
  L 31.85 26.79
  A 1.10 1.10 0.0 0 0 31.01 25.95
  L 28.27 25.35
  A 1.10 1.10 0.0 0 1 28.28 23.20
  L 31.03 22.61
  A 1.10 1.10 0.0 0 0 31.87 21.77
  L 32.47 19.03
  A 1.10 1.10 0.0 0 1 34.62 19.04
  L 35.21 21.79
  A 1.10 1.10 0.0 0 0 36.05 22.63
  Z"
/>
</svg>
