<?xml version="1.0" encoding="UTF-8" standalone="no"?>
<!DOCTYPE svg PUBLIC "-//W3C//DTD SVG 1.1//EN" "http://www.w3.org/Graphics/SVG/1.1/DTD/svg11.dtd">
<svg xmlns="http://www.w3.org/2000/svg" class="send" version="1.1" viewBox="0.00 0.00 800.00 800.00">
<path fill="#0084ff" d="
  M 570.92 406.93
  Q 573.32 401.43 571.55 395.33
  C 568.38 384.42 558.23 384.32 549.01 383.77
  Q 337.75 371.35 126.50 358.81
  C 121.43 358.50 115.26 358.63 110.78 356.74
  C 107.61 355.40 103.30 353.11 101.80 349.78
  Q 101.76 349.68 100.60 345.71
  Q 68.34 235.35 36.05 125.00
  Q 33.22 115.36 33.48 101.76
  C 34.46 49.30 85.49 25.34 131.34 36.94
  C 139.60 39.03 147.62 43.76 155.48 47.77
  Q 440.01 192.73 724.56 337.66
  C 741.58 346.33 755.68 362.67 762.67 380.48
  C 774.33 410.24 759.64 444.22 734.76 461.69
  Q 729.75 465.20 717.32 471.42
  Q 430.59 614.91 143.84 758.37
  Q 135.75 762.42 130.17 763.79
  C 110.49 768.63 87.85 765.26 69.81 756.94
  C 55.27 750.23 44.18 736.94 38.54 721.99
  Q 28.87 696.39 37.10 670.79
  Q 39.82 662.34 39.84 662.26
  Q 70.09 558.88 100.32 455.51
  Q 100.34 455.43 101.18 451.66
  C 103.41 441.64 114.11 442.20 122.17 441.72
  Q 339.71 428.75 557.24 415.65
  Q 567.37 415.04 570.92 406.93
  Z"
/>
</svg>
